:SAMPLES-PER-SECOND 30
:FULLY-SPECIFIED
:DEGREES
342
root  -3.35517 36.9837 21.8892 -169.081 17.6983 173.828
RightUpLeg  -41.0823 -19.4424 -13.4991
RightLeg  43.1652 -5.34293 -5.64491
RightFoot  -7.97079 -0.303754 8.48069
RightToes  0.000482159 0.542163 -0.142577
Spine  57.1812 -1.31924 5.99647
Spine1  -12.027 1.55929 0.690471
HEad  -74.2155 28.1002 -33.9802
LeftShoulder1  11.9507 -17.2115 -50.3624
LeftArm  4.665 -14.4233 -39.5843
LeftForeArm  66.3213 -65.0127 -17.2704
LeftHand  -0.25398 0.0180481 5.50724
RightShoulder  6.02725 11.8509 33.3036
RightArm  -14.224 -16.9948 24.4214
RightForeArm  -8.5241 41.5843 10.4588
RightHand  -5.98804 15.662 -32.5945
LeftUpLeg  -38.4452 5.21158 -1.6667
LeftLeg  43.1319 -0.762168 -0.363591
LeftFoot  -15.2804 -0.0160592 -3.14374
LeftToes  1.06246e-005 4.65855e-005 -8.18502e-006
343
root  -2.55123 37.0019 21.632 -169.863 16.8446 172.569
RightUpLeg  -40.2889 -18.9262 -14.3008
RightLeg  45.2581 -5.86361 -6.61602
RightFoot  -10.5484 -0.130447 8.34757
RightToes  0.000482159 0.542163 -0.142577
Spine  56.7749 -0.970678 5.65447
Spine1  -11.7966 1.67639 1.26637
HEad  -73.8664 27.9259 -34.4431
LeftShoulder1  11.911 -17.1642 -50.3104
LeftArm  6.4437 -14.7165 -40.2114
LeftForeArm  66.1596 -64.7609 -17.057
LeftHand  -0.25398 0.0180481 5.50724
RightShoulder  6.08853 11.8134 33.7969
RightArm  -13.7791 -18.3546 25.0475
RightForeArm  -9.84864 39.2062 9.71766
RightHand  -6.36458 16.5345 -33.2167
LeftUpLeg  -36.6123 5.834 -1.74467
LeftLeg  42.0847 -1.71022 -1.25671
LeftFoot  -15.6796 -0.0657335 -4.19774
LeftToes  1.06246e-005 4.65855e-005 -8.18502e-006
344
root  -1.67026 37.0039 21.3338 -170.694 16.4186 171.4
RightUpLeg  -39.5719 -18.3373 -14.7143
RightLeg  47.4798 -6.33769 -7.68727
RightFoot  -12.9741 0.0201914 7.67255
RightToes  0.000482159 0.542163 -0.142577
Spine  56.1238 -0.614027 5.23268
Spine1  -11.5363 1.69403 1.79298
HEad  -73.0454 27.9652 -35.0064
LeftShoulder1  11.7962 -17.0363 -50.1373
LeftArm  6.52553 -14.9055 -40.6562
LeftForeArm  66.3078 -64.5867 -16.8868
LeftHand  -0.25398 0.0180481 5.50724
RightShoulder  6.1544 11.6932 34.5382
RightArm  -13.9836 -19.3958 25.667
RightForeArm  -10.0435 38.0876 9.36632
RightHand  -6.70678 17.118 -34.0314
LeftUpLeg  -34.3885 6.33308 -1.42951
LeftLeg  40.8066 -2.73928 -2.14537
LeftFoot  -16.469 -0.186283 -6.32772
LeftToes  1.06246e-005 4.65855e-005 -8.18502e-006
345
root  -0.706328 36.9952 20.9877 -171.459 16.1166 170.369
RightUpLeg  -38.69 -17.9604 -14.7255
RightLeg  49.581 -7.02733 -9.10835
RightFoot  -15.5019 0.150678 7.01338
RightToes  0.000482159 0.542163 -0.142577
Spine  55.2459 -0.537252 4.89549
Spine1  -11.3317 1.45402 2.26518
HEad  -72.1311 28.5517 -35.9822
LeftShoulder1  11.6466 -16.8515 -49.953
LeftArm  5.03785 -15.0381 -40.5043
LeftForeArm  65.9957 -64.4818 -16.8223
LeftHand  -0.25398 0.0180481 5.50724
RightShoulder  6.15766 11.4806 35.1261
RightArm  -14.9118 -19.9767 26.28
RightForeArm  -9.1851 38.2873 9.38426
RightHand  -6.9679 17.5893 -34.5867
LeftUpLeg  -32.0842 6.23141 -0.72486
LeftLeg  39.548 -3.06125 -2.33153
LeftFoot  -17.1118 -0.340543 -8.80253
LeftToes  1.06246e-005 4.65855e-005 -8.18502e-006
346
root  0.340415 36.9772 20.596 -172.028 15.7982 169.499
RightUpLeg  -37.5912 -17.8914 -14.4189
RightLeg  51.1499 -7.50779 -10.238
RightFoot  -18.0188 0.297638 7.1666
RightToes  0.000482159 0.542163 -0.142577
Spine  54.1418 -0.766463 4.65103
Spine1  -11.1204 0.953097 2.91094
HEad  -70.9859 29.8375 -37.3633
LeftShoulder1  11.4387 -16.5974 -49.6824
LeftArm  2.1607 -14.968 -39.3898
LeftForeArm  65.1352 -64.3636 -16.7971
LeftHand  -0.25398 0.0180481 5.50724
RightShoulder  6.05697 11.2047 35.2118
RightArm  -15.9571 -19.9176 26.5604
RightForeArm  -8.13017 39.5897 9.75132
RightHand  -7.02509 17.7889 -34.5683
LeftUpLeg  -30.0183 5.41884 0.211687
LeftLeg  38.4854 -2.33713 -1.61827
LeftFoot  -17.1991 -0.401298 -9.85502
LeftToes  1.06246e-005 4.65855e-005 -8.18502e-006
347
root  1.44731 36.9078 20.1456 -172.324 16.1543 169.144
RightUpLeg  -36.5337 -17.5267 -13.4537
RightLeg  52.3051 -7.56556 -10.7482
RightFoot  -20.5874 0.489206 7.76637
RightToes  0.000482159 0.542163 -0.142577
Spine  52.7884 -1.14609 4.80912
Spine1  -11.0383 0.494611 3.35253
HEad  -69.2392 31.8406 -39.1115
LeftShoulder1  11.1316 -16.2427 -49.2178
LeftArm  -2.4336 -13.7258 -36.8149
LeftForeArm  64.193 -63.9315 -16.5066
LeftHand  -0.25398 0.0180481 5.50724
RightShoulder  5.84358 10.8359 34.7898
RightArm  -16.8882 -18.82 26.4396
RightForeArm  -7.12798 41.3999 10.313
RightHand  -6.87012 17.4436 -34.3381
LeftUpLeg  -27.89 4.67194 1.72403
LeftLeg  37.429 -1.79471 -1.10282
LeftFoot  -17.781 -0.507263 -10.8043
LeftToes  1.06246e-005 4.65855e-005 -8.18502e-006
348
root  2.6153 36.748 19.6307 -172.478 18.1493 169.709
RightUpLeg  -35.5448 -15.8006 -11.4422
RightLeg  53.3992 -7.69867 -11.3686
RightFoot  -23.5973 0.697853 7.98845
RightToes  0.000482159 0.542163 -0.142577
Spine  51.305 -1.50215 5.68714
Spine1  -11.0673 0.465785 2.75859
HEad  -66.6838 34.463 -41.3244
LeftShoulder1  10.8091 -15.8254 -48.8243
LeftArm  -8.89678 -10.0575 -32.0348
LeftForeArm  61.607 -62.6745 -15.7109
LeftHand  -0.25398 0.0180481 5.50724
RightShoulder  5.53251 10.3643 33.9431
RightArm  -18.3908 -16.0744 26.7026
RightForeArm  -5.5091 43.3436 10.9246
RightHand  -6.7414 16.8839 -34.5302
LeftUpLeg  -25.3382 5.28176 4.2293
LeftLeg  36.8028 -1.5422 -0.898172
LeftFoot  -19.2341 -0.857462 -14.037
LeftToes  1.06246e-005 4.65855e-005 -8.18502e-006
